<?xml version="1.0" standalone="no"?>
<!DOCTYPE svg PUBLIC "-//W3C//DTD SVG 20010904//EN"
 "http://www.w3.org/TR/2001/REC-SVG-20010904/DTD/svg10.dtd">
<svg version="1.0" xmlns="http://www.w3.org/2000/svg"
 width="16.000000pt" height="16.000000pt" viewBox="0 0 16.000000 16.000000"
 preserveAspectRatio="xMidYMid meet">
<metadata>
Created by potrace 1.11, written by Peter Selinger 2001-2013
</metadata>
<g transform="translate(0.000000,16.000000) scale(0.012500,-0.012500)"
fill="#000000" stroke="none">
<path d="M946 1244 c-70 -11 -92 -19 -106 -36 -9 -13 -49 -66 -88 -118 -39
-52 -74 -100 -79 -105 -41 -51 -41 -48 2 -41 56 9 104 16 144 21 18 2 34 5 36
7 41 54 205 280 205 283 0 6 -6 6 -114 -11z"/>
<path d="M1220 1179 c-14 -18 -49 -64 -78 -102 l-53 -69 63 6 c37 4 73 14 88
25 27 19 29 39 13 130 l-8 43 -25 -33z"/>
<path d="M545 1186 c-38 -7 -71 -14 -72 -14 -2 -1 -14 -2 -27 -2 -19 0 -44
-27 -123 -132 -54 -73 -103 -139 -107 -146 -7 -11 3 -12 50 -7 33 4 66 9 74
11 8 1 25 3 36 3 16 1 51 40 125 139 56 75 107 143 112 150 5 6 8 12 6 11 -2
0 -35 -7 -74 -13z"/>
<path d="M85 1118 c-75 -14 -88 -30 -80 -102 12 -103 15 -105 67 -34 25 35 60
82 78 106 31 41 31 42 8 41 -12 -1 -45 -6 -73 -11z"/>
<path d="M260 840 c-17 -4 -2 -23 100 -125 66 -66 120 -122 120 -125 0 -3 -52
-5 -115 -5 l-115 1 -108 107 c-59 59 -110 107 -113 107 -3 0 -6 -167 -5 -371
l1 -371 24 -19 c22 -18 47 -19 606 -19 l584 0 20 26 c20 25 21 39 21 283 l0
257 -67 -1 -68 -1 -128 128 c-80 80 -137 128 -150 129 -21 1 -135 1 -167 0 -8
-1 40 -56 108 -124 67 -67 122 -125 122 -127 0 -3 -52 -5 -115 -5 l-115 1
-125 125 c-69 68 -127 126 -130 128 -6 5 -162 7 -185 1z"/>
<path d="M1140 840 c-5 -3 24 -39 65 -80 l75 -74 0 77 c0 66 -2 77 -17 78 -66
4 -116 3 -123 -1z"/>
</g>
</svg>
