<?xml version="1.0" standalone="no"?>
<!DOCTYPE svg PUBLIC "-//W3C//DTD SVG 20010904//EN"
 "http://www.w3.org/TR/2001/REC-SVG-20010904/DTD/svg10.dtd">
<svg version="1.0" xmlns="http://www.w3.org/2000/svg"
 width="16.000000pt" height="16.000000pt" viewBox="0 0 16.000000 16.000000"
 preserveAspectRatio="xMidYMid meet">
<metadata>
Created by potrace 1.11, written by Peter Selinger 2001-2013
</metadata>
<g transform="translate(0.000000,16.000000) scale(0.004878,-0.004878)"
fill="#000000" stroke="none">
<path d="M1064 2257 c-41 -6 -56 -15 -75 -40 -12 -18 -61 -83 -107 -145 l-83
-113 43 6 c143 20 173 27 184 43 7 9 54 72 104 140 l91 123 -53 -2 c-29 -2
-76 -7 -104 -12z"/>
<path d="M1333 2138 c-38 -51 -72 -98 -76 -104 -4 -7 14 -8 61 -1 52 7 72 14
90 34 12 14 21 32 18 41 -3 10 -7 39 -11 67 -3 27 -8 51 -9 53 -2 1 -34 -39
-73 -90z"/>
<path d="M735 2210 c-22 -4 -66 -11 -97 -14 l-56 -7 -99 -132 c-55 -73 -103
-138 -107 -146 -8 -13 12 -12 129 4 11 2 28 4 37 4 10 1 61 60 119 139 56 75
107 143 112 150 5 6 8 12 6 11 -2 -1 -22 -5 -44 -9z"/>
<path d="M289 2146 c-2 -2 -24 -7 -48 -10 -69 -9 -83 -28 -76 -100 12 -104 14
-105 74 -24 30 40 65 88 79 106 l24 32 -24 0 c-14 0 -27 -2 -29 -4z"/>
<path d="M1683 2042 c-58 -31 -93 -96 -93 -170 0 -127 66 -202 179 -202 117 0
182 66 186 188 2 91 -35 160 -102 188 -44 19 -131 17 -170 -4z m124 -52 c39
-14 64 -59 64 -118 1 -60 -12 -94 -47 -121 -32 -25 -55 -26 -95 -6 -37 20 -56
66 -53 127 3 59 22 99 54 115 31 16 39 16 77 3z"/>
<path d="M2010 1864 l1 -185 37 3 37 3 0 113 c0 61 0 112 1 112 1 0 53 -81
113 -177 30 -49 36 -53 71 -53 22 0 40 5 42 13 3 10 2 322 -1 350 -1 5 -18 7
-38 5 l-38 -3 1 -112 c0 -62 -1 -113 -3 -113 -1 0 -10 15 -19 33 -9 17 -20 34
-23 37 -6 5 -17 23 -69 112 -26 45 -29 48 -70 48 l-42 0 0 -186z"/>
<path d="M2385 1865 l0 -185 142 0 c146 0 156 3 145 43 -4 15 -18 17 -106 17
l-101 0 1 48 c1 26 2 50 3 55 1 4 41 7 90 7 70 0 90 3 95 15 13 36 -3 44 -97
47 l-91 3 1 28 c1 15 1 32 2 37 1 6 41 10 99 10 l99 0 1 30 1 30 -142 0 -142
0 0 -185z"/>
<path d="M453 1802 c34 -35 90 -91 124 -124 34 -34 61 -63 59 -67 -2 -3 -54
-6 -116 -5 l-111 1 -108 107 c-60 60 -111 104 -114 100 -2 -5 -5 -171 -4 -369
l0 -359 23 -23 23 -23 585 0 585 0 20 26 c20 25 21 39 21 283 l0 257 -70 1
-69 1 -129 128 -129 129 -89 -2 c-49 0 -93 -2 -99 -2 -5 -1 48 -58 118 -128
l127 -128 -119 0 -119 1 -127 127 c-70 70 -130 127 -134 128 -3 0 -52 1 -108
2 l-102 2 62 -63z"/>
<path d="M1305 1860 c-11 -4 7 -27 60 -80 l75 -74 0 77 c0 42 -3 77 -7 78 -39
4 -117 3 -128 -1z"/>
<path d="M2087 1548 c-104 -61 -107 -254 -4 -322 37 -24 50 -27 102 -24 100 6
153 62 159 166 5 91 -35 168 -100 192 -44 17 -116 11 -157 -12z m153 -70 c21
-27 30 -72 24 -125 -6 -53 -54 -97 -97 -89 -57 11 -78 46 -79 128 0 78 42 123
105 113 16 -3 37 -15 47 -27z"/>
<path d="M1619 1543 c0 -10 -1 -89 -2 -176 l-2 -157 38 0 c42 0 38 -15 40 145
0 75 11 89 20 28 3 -17 8 -36 11 -41 3 -5 8 -24 11 -43 15 -90 14 -89 54 -89
l37 0 23 94 c12 52 24 102 25 110 7 49 12 11 12 -89 l-1 -115 37 0 37 0 0 175
0 175 -54 0 c-59 0 -61 -2 -70 -50 -3 -18 -8 -36 -10 -40 -2 -3 -6 -17 -9 -31
-3 -13 -8 -35 -11 -49 -4 -14 -7 -31 -7 -38 -2 -21 -16 1 -22 31 -3 16 -9 43
-15 60 -5 18 -15 51 -21 75 l-11 42 -54 0 c-45 0 -55 -3 -56 -17z"/>
<path d="M2360 1558 c0 -2 26 -79 59 -173 l59 -170 42 0 43 0 24 70 c14 38 42
116 62 172 l38 103 -41 0 -41 0 -39 -120 c-22 -66 -42 -117 -45 -114 -3 3 -21
55 -41 117 l-36 112 -42 3 c-23 2 -42 2 -42 0z"/>
<path d="M2719 1558 c-1 -2 -3 -81 -4 -175 l-2 -173 39 0 38 0 0 175 0 175
-35 0 c-19 0 -36 -1 -36 -2z"/>
<path d="M2850 1385 l0 -175 135 0 135 0 0 30 0 30 -95 0 c-56 0 -95 4 -96 10
-1 6 -1 21 -1 35 0 14 0 29 1 35 1 5 38 10 84 12 81 3 82 3 85 31 l3 27 -88 0
-88 0 0 40 0 40 93 0 92 0 0 30 0 30 -130 0 -130 0 0 -175z"/>
</g>
</svg>
